<?xml version="1.0" encoding="UTF-8"?>
<svg version="1.1" xmlns="http://www.w3.org/2000/svg" width="512" height="512">
<path d="M0 0 C3.05515131 2.41866145 4.71651831 5.18499015 6 8.875 C6 17.11141393 0.68176089 24.16551511 -3.51831055 30.90966797 C-5.44657623 34.00731427 -7.35109382 37.11953002 -9.2578125 40.23046875 C-9.65240662 40.87317719 -10.04700073 41.51588562 -10.45355225 42.17807007 C-14.56775808 48.89470585 -18.5385686 55.692551 -22.5 62.5 C-28.41258657 72.64786658 -34.44114208 82.71658513 -40.5625 92.73974609 C-45.9730461 101.60399097 -51.26891904 110.52879485 -56.5 119.5 C-61.96447322 128.86334069 -67.47145011 138.19907356 -73.07910156 147.47753906 C-73.80599525 148.68091636 -74.53146909 149.8851527 -75.25537109 151.09033203 C-76.26346445 152.76732499 -77.27812054 154.44036741 -78.29296875 156.11328125 C-79.15184692 157.53314331 -79.15184692 157.53314331 -80.02807617 158.98168945 C-84.61151444 165.99729517 -89.76198215 172.05207628 -95.70687866 177.9473877 C-96.46337885 178.70559673 -97.21987903 179.46380576 -97.99930346 180.24499083 C-100.51874141 182.76770575 -103.04522851 185.28323648 -105.57177734 187.79882812 C-107.38587692 189.6123632 -109.19953551 191.42633949 -111.01278687 193.24072266 C-114.90903675 197.13742701 -118.80831668 201.03105833 -122.71043015 204.92189026 C-128.35212176 210.54728164 -133.98823887 216.17823136 -139.6230398 221.81052393 C-148.7667546 230.94986871 -157.91492057 240.08474441 -167.06591797 249.21679688 C-175.9517335 258.08423565 -184.83543206 266.9537865 -193.71630859 275.82617188 C-194.26433944 276.37367727 -194.81237028 276.92118267 -195.37700813 277.48527914 C-198.12648788 280.2321487 -200.87592624 282.97905968 -203.62534404 285.72599125 C-226.41048346 308.49041975 -249.20285971 331.2475894 -272 354 C-270.58654688 356.9333238 -269.11518141 359.19584187 -266.9375 361.625 C-263.29331968 365.70576916 -262.65348903 368.23274101 -262.71484375 373.67578125 C-263.23966798 377.95345822 -265.42910605 380.76572618 -268.75 383.375 C-273.167424 384.60206222 -277.21018012 384.93160851 -281.28613281 382.81005859 C-284.388436 380.74092619 -286.92462311 378.3268106 -289.51953125 375.67578125 C-290.02296555 375.16951706 -290.52639984 374.66325287 -291.04508972 374.14164734 C-292.63901748 372.53659782 -294.22581707 370.92470856 -295.8125 369.3125 C-296.89732164 368.21763821 -297.98260355 367.12323226 -299.06835938 366.02929688 C-301.71759348 363.35810872 -304.36046077 360.68076716 -307 358 C-310.59613657 359.52297474 -312.87936938 361.64168341 -315.6166687 364.40307617 C-316.53905334 365.32849213 -317.46143799 366.25390808 -318.41177368 367.20736694 C-319.4267742 368.23582448 -320.44169461 369.26436107 -321.45654297 370.29296875 C-322.53066711 371.37420676 -323.60526406 372.45497525 -324.68029785 373.53530884 C-326.99332899 375.8614355 -329.30331189 378.19053318 -331.61108017 380.5218811 C-335.26125198 384.20864823 -338.92011664 387.88670379 -342.58059692 391.56323242 C-352.98784149 402.01877276 -363.38329699 412.48598792 -373.77001953 422.96191406 C-379.5074738 428.74848836 -385.25211097 434.52783498 -391.0045253 440.29953861 C-394.64401466 443.95210567 -398.27430811 447.61349951 -401.89804435 451.2816925 C-404.15578315 453.56291315 -406.42186104 455.83570526 -408.69036865 458.10621262 C-409.73955895 459.1596932 -410.78531021 460.21661191 -411.82730484 461.27721024 C-413.25199779 462.72634364 -414.69037806 464.16198234 -416.12936401 465.59692383 C-417.3300417 466.80702873 -417.3300417 466.80702873 -418.55497551 468.0415802 C-422.28640253 471.03038484 -425.63496113 471.9747215 -430.375 472.0625 C-439.30555656 469.44492308 -446.24867609 459.96791882 -452.74755859 453.49267578 C-454.38589851 451.86416688 -456.03461555 450.24663346 -457.68359375 448.62890625 C-458.73502942 447.58399142 -459.7858339 446.538441 -460.8359375 445.4921875 C-461.3254892 445.0149826 -461.81504089 444.53777771 -462.31942749 444.04611206 C-466.38597733 439.95271198 -467.96793732 436.95582329 -468.0625 431.1875 C-466.57234207 422.10041665 -455.68689069 414.5496669 -449.47485352 408.36132812 C-448.42928424 407.3160415 -447.38393626 406.27053348 -446.33879089 405.224823 C-443.52334716 402.40909434 -440.70484818 399.59644256 -437.88575864 396.7843647 C-434.9317955 393.8366861 -431.98069593 390.88614334 -429.02928162 387.93591309 C-423.44996499 382.35969481 -417.86810594 376.78602886 -412.28531164 371.2132926 C-405.92536277 364.86455149 -399.56827977 358.51294403 -393.21142685 352.16110325 C-380.14412046 339.10422735 -367.07324877 326.05092593 -354 313 C-355.7755695 309.17477491 -358.19557581 306.56191564 -361.19140625 303.6484375 C-361.69671371 303.1483316 -362.20202118 302.64822571 -362.72264099 302.13296509 C-364.33123084 300.54213057 -365.94636819 298.95816916 -367.5625 297.375 C-369.18130238 295.78382224 -370.79861821 294.19120299 -372.41307068 292.59561157 C-373.41640427 291.60452902 -374.42239908 290.61613192 -375.43128967 289.63070679 C-378.8186291 286.29210092 -380.15913165 284.49634683 -380.3125 279.75 C-380.26781479 275.12508029 -379.04490209 272.5668853 -376 269 C-371.7267735 266.15118233 -368.0140161 266.13218952 -363 267 C-358.70075881 269.28667694 -355.38722558 272.5506235 -352 276 C-349.0419775 274.66897517 -346.98084315 273.22329405 -344.70798111 270.91776371 C-343.75899409 269.96272421 -343.75899409 269.96272421 -342.79083562 268.98839098 C-342.10448938 268.28735151 -341.41814314 267.58631203 -340.71099854 266.86402893 C-339.97470176 266.12026864 -339.23840497 265.37650836 -338.47979617 264.61020988 C-336.00557152 262.10877219 -333.53855958 259.60033666 -331.07128906 257.09204102 C-329.30050852 255.29941737 -327.52918889 253.5073261 -325.75737 251.71572876 C-322.42998547 248.35033283 -319.10406711 244.98351059 -315.78030244 241.61453997 C-309.22148494 234.96691502 -302.648221 228.33373717 -296.06951904 221.70579529 C-295.03111508 220.6594927 -293.99271421 219.61318705 -292.95431638 218.56687838 C-290.85111274 216.44772917 -288.74783772 214.32865083 -286.64452887 212.20960605 C-281.23378177 206.75823999 -275.82388918 201.3060275 -270.41552734 195.85229492 C-269.60161565 195.03157167 -269.60161565 195.03157167 -268.7712613 194.19426816 C-260.03771753 185.38636274 -251.32464118 176.55846275 -242.61834696 167.72363163 C-233.64317434 158.6171052 -224.64234698 149.53647849 -215.6192472 140.47743744 C-210.56889285 135.40542476 -205.53064262 130.32256206 -200.5223465 125.20898628 C-180.09978403 104.36824296 -160.71445679 85.00972793 -134.44367218 71.79574394 C-128.3788691 68.63318002 -122.62041877 64.98309778 -116.8125 61.375 C-106.83883615 55.27052939 -96.77836942 49.3258509 -86.67642212 43.43695068 C-77.14699626 37.87922311 -67.69793233 32.20150167 -58.28341675 26.45159912 C-45.54822877 18.67796943 -32.67946735 11.13772388 -19.78540039 3.63134766 C-17.93521587 2.54773534 -16.09442599 1.44791335 -14.26367188 0.33178711 C-9.38219064 -2.54013698 -5.1826549 -2.25198695 0 0 Z " fill="#000000" transform="translate(487,21)"/>
<path d="M0 0 C4.22854442 1.71365776 8.00343904 4.0373762 11.875 6.4375 C12.99994873 7.11055176 14.12489746 7.78360352 15.28393555 8.47705078 C18.27286854 10.26615304 21.24499961 12.08135189 24.2131958 13.90460205 C27.10252807 15.67590337 30.00288998 17.42892858 32.90234375 19.18359375 C36.3795384 21.28995586 39.85474886 23.39942072 43.32373047 25.51928711 C51.66020494 30.61025564 60.06076453 35.58154521 68.5 40.5 C78.57010459 46.37097202 88.57190528 52.34142187 98.51947021 58.41766357 C105.49136499 62.67593022 112.48424284 66.89399292 119.51953125 71.046875 C120.23766495 71.47114777 120.95579865 71.89542053 121.69569397 72.33255005 C125.18296819 74.39182877 128.67296878 76.44626378 132.16723633 78.49365234 C133.44750816 79.24823706 134.72770383 80.00295103 136.0078125 80.7578125 C137.67287842 81.73451904 137.67287842 81.73451904 139.37158203 82.73095703 C140.58534558 83.48039944 141.79446924 84.23738511 143 85 C143.7265126 85.45544693 144.45302521 85.91089386 145.20155334 86.38014221 C153.0320189 91.55383297 159.43998361 97.96650721 166.04296875 104.57421875 C167.26389835 105.78803415 168.48512043 107.00155541 169.70661926 108.21479797 C172.24554143 110.74036651 174.77855738 113.27168547 177.30786133 115.80688477 C180.55387014 119.05883827 183.81792323 122.29201282 187.08692455 125.52083111 C189.60475711 128.01288864 192.11110668 130.51624846 194.61425209 133.02305031 C195.8140367 134.22113991 197.01781724 135.41524157 198.22560692 136.60526085 C199.90365879 138.26128321 201.56519857 139.93227743 203.22338867 141.6081543 C203.72556412 142.0970665 204.22773956 142.5859787 204.74513245 143.08970642 C206.09953308 144.47807312 206.09953308 144.47807312 208 147 C207.66141563 150.30706312 206.39715761 151.98135901 204.09733582 154.29707336 C203.47909439 154.92666458 202.86085297 155.5562558 202.22387695 156.20492554 C201.20076416 157.22364243 201.20076416 157.22364243 200.15698242 158.26293945 C199.44149734 158.98689407 198.72601227 159.71084869 197.98884583 160.45674133 C195.61885917 162.8501499 193.23780709 165.23217112 190.85546875 167.61328125 C189.20708481 169.26876216 187.55900215 170.92454312 185.91120911 172.58061218 C182.45534937 176.0499277 178.99359482 179.51323436 175.52807617 182.97290039 C171.0787767 187.41629448 166.64801819 191.87768534 162.22191906 196.34417439 C158.82398769 199.76789608 155.41471354 203.18014231 152.00203896 206.58916283 C150.36296195 208.22993833 148.72788882 209.87472337 147.09685326 211.52349281 C144.81997783 213.82239111 142.52792665 216.10499028 140.23120117 218.3840332 C139.55519867 219.07329895 138.87919617 219.7625647 138.18270874 220.47271729 C137.24265739 221.39595543 137.24265739 221.39595543 136.28361511 222.33784485 C135.74289966 222.87927281 135.2021842 223.42070078 134.64508343 223.97853565 C133 225 133 225 130.94972038 224.79331589 C127.93458585 223.56649683 126.04056028 221.50563686 123.70678711 219.25366211 C123.19052261 218.7587175 122.67425812 218.26377289 122.14234924 217.75382996 C120.42823503 216.10412411 118.72659567 214.44234858 117.02734375 212.77734375 C116.4369034 212.20037813 115.84646305 211.62341251 115.23813057 211.02896309 C112.08810655 207.94757076 108.94858475 204.85586983 105.81616211 201.7565918 C103.27550507 199.24642488 100.71745436 196.75664911 98.1394043 194.28491211 C81.33201711 178.15543923 68.05224811 162.10207158 57.01660824 141.53228092 C53.31945714 134.65037036 49.22343234 128.02287164 45.125 121.375 C38.59473905 110.67948686 32.19162884 99.91359599 25.8359375 89.11376953 C22.11171957 82.7974563 18.36809664 76.49263798 14.625 70.1875 C14.01782135 69.16450806 14.01782135 69.16450806 13.39837646 68.12084961 C7.29155992 57.83382435 1.1568263 47.56406526 -5.01708984 37.31713867 C-6.12318545 35.47925176 -7.22600303 33.6393872 -8.32519531 31.79736328 C-9.52146672 29.79927614 -10.73060779 27.80887127 -11.94824219 25.82373047 C-12.58407227 24.77072754 -13.21990234 23.71772461 -13.875 22.6328125 C-14.45507812 21.68293457 -15.03515625 20.73305664 -15.6328125 19.75439453 C-17.75089889 15.48720692 -18.19577422 11.61110195 -17 7 C-13.01084988 -0.14844054 -7.63566734 -1.13412497 0 0 Z " fill="#000000" transform="translate(37,20)"/>
<path d="M0 0 C2.19370126 0.86039475 3.35754645 1.84429226 5.00985813 3.51834488 C5.59015781 4.09887115 6.1704575 4.67939743 6.76834202 5.27751541 C7.38203648 5.90669373 7.99573093 6.53587204 8.62802219 7.18411636 C9.26604771 7.82638672 9.90407322 8.46865707 10.56143284 9.13039017 C12.59598837 11.18172737 14.61986099 13.24325285 16.64364719 15.30521011 C18.0218621 16.69847245 19.40076045 18.09105909 20.78036594 19.48294449 C24.15943765 22.89507876 27.52896583 26.31638718 30.89364719 29.74271011 C34.08372404 28.23728059 36.0217434 26.67304542 38.45614719 24.11771011 C41.81193647 21.10755456 44.06663936 20.19514769 48.58114719 20.05521011 C52.1448557 20.29706845 53.80174121 20.69019241 56.95614719 22.49271011 C60.44063025 26.53920656 61.11264183 29.11468055 61.35458469 34.54739761 C60.18757477 40.10552961 55.59495619 44.28211401 51.69052219 48.14114761 C51.207869 48.62097092 50.7252158 49.10079422 50.22793674 49.59515762 C48.7045224 51.10749068 47.17426264 52.61266926 45.64364719 54.11771011 C44.60151727 55.14979464 43.55984615 56.18234265 42.51864719 57.21536636 C39.98225741 59.72985607 37.43968394 62.2379845 34.89364719 64.74271011 C36.41710662 68.33910715 38.53720914 70.62622804 41.29672337 73.36610794 C42.22213932 74.28993774 43.14755527 75.21376755 44.10101414 76.16559219 C45.12946769 77.18218353 46.15800443 78.19869072 47.18661594 79.21512222 C48.26784686 80.29087671 49.34861553 81.36709597 50.42895603 82.44374466 C52.75502535 84.76010639 55.08411551 87.07337223 57.4155283 89.38435555 C61.10187245 93.03888244 64.7800429 96.70156128 68.45687962 100.36565018 C77.5904879 109.46517497 86.73335983 118.55537687 95.88107395 127.64072037 C102.99074664 134.70194698 110.09721447 141.76632504 117.19318581 148.84132391 C120.84759198 152.48420507 124.50883397 156.12002947 128.1753397 159.7507304 C130.45493349 162.0111314 132.72824846 164.27776623 134.99985981 166.54618645 C136.05421618 167.59652408 137.11115712 168.64427461 138.17085743 169.68922043 C139.61767565 171.11661585 141.054389 172.55423204 142.49057102 173.99232864 C143.29730762 174.79370223 144.10404423 175.59507582 144.93522739 176.42073345 C148.03425761 180.09506101 148.87762171 182.76515542 148.95614719 187.55521011 C147.43834379 196.67572339 136.69945297 204.15409108 130.38632298 210.49026871 C128.75781408 212.12860863 127.14028065 213.77732566 125.52255344 215.42630386 C124.47763862 216.47773953 123.4320882 217.52854401 122.38583469 218.57864761 C121.9086298 219.06819931 121.4314249 219.55775101 120.93975925 220.0621376 C116.84635918 224.12868744 113.84947048 225.71064744 108.08114719 225.80521011 C98.99406385 224.31505218 91.4433141 213.42960081 85.25497532 207.21756363 C84.20968869 206.17199435 83.16418067 205.12664637 82.11847019 204.08150101 C79.30274153 201.26605727 76.49008975 198.44755829 73.67801189 195.62846875 C70.73033329 192.67450562 67.77979054 189.72340604 64.82956028 186.77199173 C59.25334201 181.1926751 53.67967605 175.61081605 48.10693979 170.02802175 C41.75819869 163.66807289 35.40659122 157.31098988 29.05475044 150.95413697 C15.99787454 137.88683058 2.94457313 124.81595888 -10.10635281 111.74271011 C-13.9315779 113.51827961 -16.54443717 115.93828593 -19.45791531 118.93411636 C-19.9580212 119.43942383 -20.4581271 119.94473129 -20.97338772 120.4653511 C-22.56422223 122.07394096 -24.14818364 123.68907831 -25.73135281 125.30521011 C-27.32253057 126.92401249 -28.91514981 128.54132832 -30.51074123 130.15578079 C-31.50182378 131.15911439 -32.49022088 132.1651092 -33.47564602 133.17399979 C-36.81425189 136.56133922 -38.61000598 137.90184176 -43.35635281 138.05521011 C-47.98127252 138.0105249 -50.5394675 136.7876122 -54.10635281 133.74271011 C-56.95517047 129.46948361 -56.97416328 125.75672621 -56.10635281 120.74271011 C-53.81967586 116.44346892 -50.55572931 113.12993569 -47.10635281 109.74271011 C-48.38481012 106.92737257 -49.69281375 104.92089835 -51.91958523 102.78177261 C-52.48324291 102.23440445 -53.0469006 101.68703629 -53.62763882 101.12308121 C-54.23291912 100.54380875 -54.83819942 99.96453629 -55.46182156 99.36771011 C-56.73632861 98.12334695 -58.01040442 96.87854198 -59.28408718 95.63333511 C-61.29394378 93.67942425 -63.30742795 91.72966755 -65.32876492 89.78763199 C-67.28001637 87.90866667 -69.21548715 86.0145732 -71.14932156 84.11771011 C-72.06635105 83.24880142 -72.06635105 83.24880142 -73.00190639 82.36233902 C-74.68130398 80.70364761 -74.68130398 80.70364761 -77.10635281 77.74271011 C-76.82707192 74.43351763 -75.49465531 72.7524348 -73.20368862 70.44563675 C-72.5854472 69.81604553 -71.96720577 69.18645432 -71.33022976 68.53778458 C-70.30711697 67.51906769 -70.30711697 67.51906769 -69.26333523 66.47977066 C-68.19010761 65.39383873 -68.19010761 65.39383873 -67.09519863 64.28596878 C-64.72521198 61.89256022 -62.34415989 59.51053899 -59.96182156 57.12942886 C-58.31343761 55.47394795 -56.66535496 53.818167 -55.01756191 52.16209793 C-51.56170218 48.69278242 -48.09994762 45.22947575 -44.63442898 41.76980972 C-40.18512951 37.32641563 -35.75437099 32.86502478 -31.32827187 28.39853573 C-27.9303405 24.97481403 -24.52106634 21.5625678 -21.10839176 18.15354729 C-19.46931476 16.51277178 -17.83424162 14.86798675 -16.20320606 13.2192173 C-13.92633063 10.92031901 -11.63427945 8.63771984 -9.33755398 6.35867691 C-8.66155148 5.66941116 -7.98554897 4.98014542 -7.28906155 4.26999283 C-6.66236065 3.65450073 -6.03565975 3.03900864 -5.38996792 2.40486526 C-4.84925246 1.8634373 -4.30853701 1.32200933 -3.75143623 0.76417446 C-2.10635281 -0.25728989 -2.10635281 -0.25728989 0 0 Z " fill="#000000" transform="translate(344.1063528060913,267.2572898864746)"/>
</svg>
